<svg height="1000" width="938" xmlns="http://www.w3.org/2000/svg"><path d="M208.75 708.75q0-60 8.75-118.75t31.875-118.75 56.875-105 89.375-73.125T521.25 265V108.75q0-21.25 16.875-36.25T580 57.5q27.5 0 46.25 18.75l311.25 320q-210 211.25-311.25 317.5-17.5 20-46.25 20-25 0-41.875-15T521.25 682.5V526.25Q342.5 530 208.75 733.75v-25zM52.5 942.5q-21.25 0-36.875-15.625T0 890V161.25Q0 140 15.625 124.375T52.5 108.75h416.25v105h-365v625h625V682.5q65-67.5 105-107.5v315q0 21.25-15.625 36.875T781.25 942.5H52.5z"/></svg>