<svg xmlns="http://www.w3.org/2000/svg" width="569.776" height="552.572" version="1"><g fill-rule="evenodd"><path d="M208.003 427.142l17.173 68.69L541.1 196.322l25.507-34.85c7.36-20.312.376-25.906-5.556-34.598l-27.778 25.506-325.27 274.762z" fill="#ac677f" fill-opacity=".941"/><path d="M29.768 330.786c10.866-16.634 18.416-31.05 33.393-43.57l6.965 31.427-40.357 12.143z" fill="#d6a5b8"/><path d="M60.483 289.715C56.6 293.64 56.037 298.373 62.09 304l159.643 140c11.428 6.798 22.857 4.345 34.285-2.142l306.43-290.715c2.297-7.445 4.892-14.973-2.144-24.285-45.817-46.526-93-84.85-140.714-120-17.333-12.142-27.25-5.742-37.143.714L60.483 289.715z" fill="#cb8da4"/><path d="M53.16 308.286c-7.094 2.713-14.706 6.98-29.285 32.143l-20.714 35c-1.61 8.036-6.6 17.475.715 29.285 46.778 51.794 97.748 99.394 152.143 143.57 11.73 6.15 22.687 6.227 32.857-6.427l42.143-67.143c6.696-13.196 3.51-20.694-8.57-30l-154.287-135c-5-3.82-10-3.285-15-1.43z" fill="#b47791"/><path d="M172.447 552.572c8.212-3.086 9.423 1.653 27.857-12.857l301.09-289.957c9.02-8.838 16.908-18.43 23.91-28.615 15.775-19.49 28.74-41.794 43.11-62.69l-311.68 291.262L231.017 474l-43.57 70c-6.65 6.155-11.013 7.738-15 8.572z" fill="#a47179"/></g></svg>